<svg width="32" height="32" viewBox="0 0 32 32" fill="none" xmlns="http://www.w3.org/2000/svg">
<path d="M27.9902 24.876C20.1522 27.0875 11.8562 27.0947 4.01444 24.8968C2.98895 24.6099 2.07438 24.0192 1.39118 23.2025C0.707982 22.3857 0.288192 21.3811 0.187096 20.3211C-0.0623652 17.6251 -0.0623652 14.9119 0.187096 12.216C0.286899 11.1534 0.706899 10.1462 1.39155 9.32749C2.07619 8.5088 2.99323 7.91723 4.02137 7.63101C11.8606 5.44929 20.1478 5.45648 27.9833 7.6518C29.0104 7.9391 29.9262 8.5311 30.61 9.34967C31.2937 10.1682 31.7131 11.1749 31.8129 12.2368C32.0624 14.9204 32.0624 17.6213 31.8129 20.3049C31.7119 21.3637 31.2926 22.3672 30.6102 23.1831C29.9279 23.999 29.0144 24.5892 27.9902 24.876V24.876Z" fill="#21409A"/>
<path fill-rule="evenodd" clip-rule="evenodd" d="M4.01444 24.8968C11.8562 27.0948 20.1522 27.0876 27.9902 24.876C28.1615 24.8281 28.3297 24.7716 28.4942 24.707C28.5361 24.5104 28.5669 24.3108 28.5861 24.1092C28.8356 21.4248 28.8356 18.7231 28.5861 16.0387C28.4858 14.9776 28.066 13.9718 27.3823 13.1541C26.6986 12.3363 25.7831 11.7451 24.7565 11.4584C16.9208 9.26382 8.63365 9.25743 0.794582 11.4399C0.619403 11.4887 0.447447 11.5463 0.279316 11.6124C0.237085 11.8109 0.206215 12.0124 0.187096 12.216C-0.0623652 14.9119 -0.0623652 17.6251 0.187096 20.3211C0.288192 21.3811 0.707982 22.3857 1.39118 23.2025C2.07438 24.0193 2.98895 24.61 4.01444 24.8968Z" fill="url(#paint0_linear_6603_42772)"/>
<path fill-rule="evenodd" clip-rule="evenodd" d="M5.55663 25.2993C12.938 27.0844 20.6642 26.9431 27.9902 24.876C29.0144 24.5893 29.9279 23.9991 30.6102 23.1831C31.2926 22.3672 31.7119 21.3638 31.8129 20.3049C31.9599 18.7241 32.0202 17.1372 31.9941 15.5514C24.6184 13.7663 16.8995 13.8931 9.57181 15.9325C8.5447 16.2182 7.62839 16.8088 6.94384 17.6261C6.25929 18.4435 5.83868 19.4492 5.73754 20.5105C5.59013 22.1031 5.52983 23.7017 5.55663 25.2993Z" fill="url(#paint1_linear_6603_42772)"/>
<path fill-rule="evenodd" clip-rule="evenodd" d="M21.489 26.1941C15.6578 26.9272 9.71603 26.4949 4.01443 24.8968C2.98894 24.6099 2.07438 24.0192 1.39118 23.2024C0.707978 22.3857 0.288188 21.3811 0.187091 20.3211C0.132942 19.7359 0.0905473 19.1499 0.059906 18.5634C5.89263 17.8437 11.8327 18.2826 17.5337 19.8799C18.5606 20.1668 19.4764 20.7583 20.1602 21.5765C20.8439 22.3947 21.2634 23.401 21.3634 24.4625C21.4167 25.039 21.4586 25.6164 21.489 26.1941Z" fill="url(#paint2_linear_6603_42772)"/>
<defs>
<linearGradient id="paint0_linear_6603_42772" x1="-3.22679" y1="20.0786" x2="28.7732" y2="20.0786" gradientUnits="userSpaceOnUse">
<stop offset="0.19" stop-color="#5C79BC"/>
<stop offset="1" stop-color="#5C79BC" stop-opacity="0.5"/>
</linearGradient>
<linearGradient id="paint1_linear_6603_42772" x1="5.55045" y1="24.5665" x2="37.5504" y2="24.5665" gradientUnits="userSpaceOnUse">
<stop offset="0.19" stop-color="#ACBCE1"/>
<stop offset="1" stop-color="#ACBCE1" stop-opacity="0.3"/>
</linearGradient>
<linearGradient id="paint2_linear_6603_42772" x1="-10.4496" y1="28.5024" x2="21.5504" y2="28.5024" gradientUnits="userSpaceOnUse">
<stop offset="0.29" stop-color="#F99F25"/>
<stop offset="0.38" stop-color="#F9A22B"/>
<stop offset="0.49" stop-color="#FAA93D"/>
<stop offset="0.63" stop-color="#FBB659"/>
<stop offset="0.77" stop-color="#FCC881"/>
<stop offset="0.92" stop-color="#FEDEB4"/>
<stop offset="0.98" stop-color="#FFE8CA"/>
</linearGradient>
</defs>
</svg>
